<svg xmlns="http://www.w3.org/2000/svg" aria-hidden="true">
  <symbol id="i-phone" viewBox="0 0 24 24"><path fill="currentColor" d="M6.6 10.8c1.4 2.8 3.7 5.1 6.6 6.6l2.2-2.2c.3-.3.8-.4 1.2-.3 1 .3 2 .5 3.1.5.7 0 1.3.6 1.3 1.3V20c0 .7-.6 1.3-1.3 1.3C10.5 21.3 2.7 13.5 2.7 3.8 2.7 3.1 3.3 2.5 4 2.5h3.3c.7 0 1.3.6 1.3 1.3 0 1.1.2 2.1.5 3.1.1.4 0 .9-.3 1.2l-2.2 2.7Z"/></symbol>
  <symbol id="i-mail" viewBox="0 0 24 24"><path fill="currentColor" d="M3 5.5h18A1.5 1.5 0 0 1 22.5 7v10A1.5 1.5 0 0 1 21 18.5H3A1.5 1.5 0 0 1 1.5 17V7A1.5 1.5 0 0 1 3 5.5Zm0 2.1v.2l9 6.2 9-6.2v-.2H3Zm18 2.8-8.6 5.9a.8.8 0 0 1-.8 0L3 10.4V17h18v-6.6Z"/></symbol>
  <symbol id="i-pin" viewBox="0 0 24 24"><path fill="currentColor" d="M12 2.5a7 7 0 0 1 7 7c0 5.4-7 12-7 12s-7-6.6-7-12a7 7 0 0 1 7-7Zm0 9.7a2.7 2.7 0 1 0 0-5.4 2.7 2.7 0 0 0 0 5.4Z"/></symbol>
  <symbol id="i-globe" viewBox="0 0 24 24"><path fill="currentColor" d="M12 2.3a9.7 9.7 0 1 0 0 19.4 9.7 9.7 0 0 0 0-19.4Zm6.9 8.6h-3c-.2-2-.9-3.8-1.8-5.2a8.3 8.3 0 0 1 4.8 5.2ZM12 4.1c1 1.4 1.9 3.8 2 6.8h-4c.1-3 1-5.4 2-6.8ZM5.1 13.1h3c.2 2 .9 3.8 1.8 5.2a8.3 8.3 0 0 1-4.8-5.2Zm3-2.2h-3a8.3 8.3 0 0 1 4.8-5.2c-.9 1.4-1.6 3.2-1.8 5.2Zm1.9 2.2h4c-.1 3-1 5.4-2 6.8-1-1.4-1.9-3.8-2-6.8Zm5.9 5.2c.9-1.4 1.6-3.2 1.8-5.2h3a8.3 8.3 0 0 1-4.8 5.2Z"/></symbol>
  <symbol id="i-code" viewBox="0 0 24 24"><path fill="currentColor" d="m8.2 6.2-5 5.8 5 5.8 1.8-1.6L6.4 12l3.6-4.2-1.8-1.6Zm7.6 0L14 7.8 17.6 12 14 16.2l1.8 1.6 5-5.8-5-5.8ZM13.1 3l-5.4 18 2.2.6 5.4-18-2.2-.6Z"/></symbol>
  <symbol id="i-devices" viewBox="0 0 24 24"><path fill="currentColor" d="M4 5.2A2.2 2.2 0 0 1 6.2 3h8.6A2.2 2.2 0 0 1 17 5.2v8.1a2.2 2.2 0 0 1-2.2 2.2H11v1.3h2.4v1.7H7.6v-1.7H10v-1.3H6.2A2.2 2.2 0 0 1 4 13.3V5.2Zm2.2-.5a.5.5 0 0 0-.5.5v8.1c0 .3.2.5.5.5h8.6c.3 0 .5-.2.5-.5V5.2a.5.5 0 0 0-.5-.5H6.2Zm13.1 3.1h1.5A1.2 1.2 0 0 1 22 9v10a1.2 1.2 0 0 1-1.2 1.2H13a1.2 1.2 0 0 1-1.2-1.2v-2h1.7v1.5H20.3V9.5h-1V7.8Z"/></symbol>
  <symbol id="i-pen" viewBox="0 0 24 24"><path fill="currentColor" d="m16.8 3.3 3.9 3.9c.7.7.7 1.8 0 2.5l-9.9 9.9-4.8 1.2 1.2-4.8 9.9-9.9c.7-.7 1.8-.7 2.5 0ZM8.4 17.9l1.7-.4-1.3-1.3-.4 1.7Z"/></symbol>
  <symbol id="i-brand" viewBox="0 0 24 24"><path fill="currentColor" d="M12 2.5 3 7v6c0 4.2 2.7 8 9 8.5 6.3-.5 9-4.3 9-8.5V7l-9-4.5Zm-1.1 12.7-3.4-3.4 1.5-1.5 1.9 1.9 4.2-4.2 1.5 1.5-5.7 5.7Z"/></symbol>
  <symbol id="i-search" viewBox="0 0 24 24"><path fill="currentColor" d="M10.5 3.5a7 7 0 1 1 0 14 7 7 0 0 1 0-14Zm0 2a5 5 0 1 0 0 10 5 5 0 0 0 0-10Zm8.6 11.2 2.4 2.4-1.4 1.4-2.4-2.4 1.4-1.4Z"/></symbol>
  <symbol id="i-megaphone" viewBox="0 0 24 24"><path fill="currentColor" d="M20 6.5v10c0 .7-.8 1.2-1.4.9l-4.8-2.4H10l1.2 4.5c.2.7-.2 1.4-.9 1.6l-1.6.4c-.7.2-1.4-.2-1.6-.9L5.5 15H4A2 2 0 0 1 2 13V10a2 2 0 0 1 2-2h1.5l1-4.7c.2-.7.9-1.1 1.6-.9l1.6.4c.7.2 1.1.9.9 1.6L10 8h3.8L18.6 5.6c.6-.3 1.4.2 1.4.9Z"/></symbol>
  <symbol id="i-gear" viewBox="0 0 24 24"><path fill="currentColor" d="m20.2 13.1 1.3-1.1-1.4-2.5-1.7.3a6.8 6.8 0 0 0-1.1-1l.2-1.7-2.7-1-1 1.4a6.8 6.8 0 0 0-1.5 0l-1-1.4-2.7 1 .2 1.7a6.8 6.8 0 0 0-1.1 1L3.9 9.5 2.5 12l1.3 1.1a6.8 6.8 0 0 0 0 1.8L2.5 16l1.4 2.5 1.7-.3c.3.4.7.7 1.1 1l-.2 1.7 2.7 1 1-1.4a6.8 6.8 0 0 0 1.5 0l1 1.4 2.7-1-.2-1.7c.4-.3.8-.6 1.1-1l1.7.3 1.4-2.5-1.3-1.1a6.8 6.8 0 0 0 0-1.8ZM12 15.5a3.5 3.5 0 1 1 0-7 3.5 3.5 0 0 1 0 7Z"/></symbol>
  <symbol id="i-shield" viewBox="0 0 24 24"><path fill="currentColor" d="M12 2.7 4 5.9v5.7c0 4.8 3.3 9.1 8 10.7 4.7-1.6 8-5.9 8-10.7V5.9l-8-3.2Zm-1 12.8-3-3 1.4-1.4 1.6 1.6 3.6-3.6 1.4 1.4-5 5Z"/></symbol>
  <symbol id="i-rocket" viewBox="0 0 24 24"><path fill="currentColor" d="M14.5 3c3.2 1 5.5 3.3 6.5 6.5l-4.4 1.4-3.5-3.5L14.5 3ZM11.8 8l4.2 4.2-6.6 6.6-3.2.7.7-3.2L11.8 8ZM6 18l-1.6 3.5L8 20l-2-2Z"/></symbol>
  <symbol id="i-calendar-check" viewBox="0 0 24 24"><path fill="currentColor" d="M7 2.5h2v2h6v-2h2v2h1.2A2.8 2.8 0 0 1 21 7.3v10.9a2.8 2.8 0 0 1-2.8 2.8H5.8A2.8 2.8 0 0 1 3 18.2V7.3a2.8 2.8 0 0 1 2.8-2.8H7v-2Zm12 7.3H5v8.4c0 .4.4.8.8.8h12.4c.4 0 .8-.4.8-.8V9.8ZM5.8 6.5a.8.8 0 0 0-.8.8v.5h14v-.5a.8.8 0 0 0-.8-.8H17v1h-2v-1H9v1H7v-1H5.8Zm10.7 6.4-5.2 5.2-3-3 1.4-1.4 1.6 1.6 3.8-3.8 1.4 1.4Z"/></symbol>
  <symbol id="i-compass" viewBox="0 0 24 24"><path fill="currentColor" d="M12 2.5a9.5 9.5 0 1 1 0 19 9.5 9.5 0 0 1 0-19Zm0 2a7.5 7.5 0 1 0 0 15 7.5 7.5 0 0 0 0-15Zm4.7 3.3-2.2 6.7-6.7 2.2 2.2-6.7 6.7-2.2Zm-4.9 4-1 3 3-1 .9-3-2.9 1Z"/></symbol>
  <symbol id="i-menu" viewBox="0 0 24 24"><path fill="currentColor" d="M4 7h16v2H4V7Zm0 8v-2h16v2H4Z"/></symbol>
</svg>
